# xmcd
#
# Track frame offsets: 
#        150
#        16210
#        39456
#        55915
#        70168
#        92422
#        105579
#        121485
#        141735
#        156369
#        182713
#
# Disc length: 3288 seconds
#
# Revision: 0
# Processed by: cddbd v1.5.2PL0 Copyright (c) Steve Scherf et al.
# Submitted via: ExactAudioCopy v0.99pb5
#
DISCID=950cd60b
DTITLE=Blackmailers - Contrafact
DYEAR=2009
DGENRE=Blues
TTITLE0=Cuntry Boner
TTITLE1=Sweet Home Chicagoj
TTITLE2=Babadai
TTITLE3=Zing Zing
TTITLE4=Diamond Rain
TTITLE5=Kibori
TTITLE6=Tainted Love
TTITLE7=Gloomy Sunday
TTITLE8=Lume Lume
TTITLE9=Who Was It, Everybody? (It Was Jesus)
TTITLE10=video
EXTD=
EXTT0=
EXTT1=
EXTT2=
EXTT3=
EXTT4=
EXTT5=
EXTT6=
EXTT7=
EXTT8=
EXTT9=
EXTT10=
PLAYORDER=
